<svg width="916" height="458" xmlns="http://www.w3.org/2000/svg" viewBox="0 0 1920 412.42"><g fill="#fff"><path d="M1907.76 157.43L1920 94.49h-99.13L1839.22.08h-66.09l-18.35 94.41h-99.13L1674 .08h-66.1l-18.34 94.41h-99.14l-12.23 62.94h99.13L1559 251.85h-99.14l-12.23 62.94h99.14l-18.36 94.42h66.09l18.36-94.42H1712l-18.36 94.42h66.1l18.36-94.42h99.13l12.24-62.94h-99.14l18.35-94.42zm-183.57 94.42h-99.14l18.36-94.42h99.12zM217.13 409l-79.85-163.16H79.85V409H0V0h160.26C243.55 0 293 56.86 293 125.22c0 57.45-35 93.05-74.68 107.42L309.61 409zm-62-337.76H79.85v108h75.25c35 0 58-22.41 58-54s-22.97-54.02-58-54.02zM535.46 409v-27.59c-19.53 20.68-47.1 31-74.68 31-29.86 0-54-9.76-70.65-26.41-24.12-24.14-30.44-52.27-30.44-85V109.71h74.68v180.93c0 40.8 25.85 54.58 49.39 54.58s50-13.78 50-54.58V109.71h74.68V409zM785.91 409c-60.89 0-86.73-43.08-86.73-85.58V166.14h-31.6v-56.87h31.6v-79.4h74.67v79.4h52.84v56.87h-52.84v152.65c0 17.25 8 27 25.84 27h27V409zM951.24 282.61c0 38.48 23.55 66.62 65.48 66.62 32.75 0 48.83-9.19 67.79-28.14l45.38 44.23c-30.46 30.45-59.75 47.1-113.75 47.1-70.64 0-138.42-32.16-138.42-153.36 0-97.65 52.84-152.79 130.39-152.79 83.28 0 130.39 60.88 130.39 143v33.32zm106.84-83.29c-8-17.81-24.7-31-50-31s-41.94 13.21-50 31c-4.6 10.91-6.33 19-6.9 32.16H1065c-.6-13.21-2.34-21.25-6.92-32.16zM1400.43 116.49c-13.71-7.29-28.69-10.22-47.06-10.22-32.17 0-60.9 14.93-75.25 32.16v-28.72h-72.95V409h74.67V228.61c0-37.91 25.36-52.94 48.26-55.14 27.24-2.62 42.12 11.23 42.12 11.23z"/></g></svg>