<?xml version="1.0" encoding="UTF-8" standalone="no"?>
<svg
   width="916"
   height="196.75871"
   viewBox="0 0 1920 177.17735"
   version="1.1"
   id="svg6"
   sodipodi:docname="ruter_logo"
   inkscape:version="1.2.2 (b0a8486541, 2022-12-01, custom)"
   xmlns:inkscape="http://www.inkscape.org/namespaces/inkscape"
   xmlns:sodipodi="http://sodipodi.sourceforge.net/DTD/sodipodi-0.dtd"
   xmlns="http://www.w3.org/2000/svg"
   xmlns:svg="http://www.w3.org/2000/svg">
  <defs
     id="defs10" />
  <sodipodi:namedview
     id="namedview8"
     pagecolor="#ffffff"
     bordercolor="#666666"
     borderopacity="1.0"
     inkscape:showpageshadow="2"
     inkscape:pageopacity="0.0"
     inkscape:pagecheckerboard="0"
     inkscape:deskcolor="#d1d1d1"
     showgrid="false"
     inkscape:zoom="1.430131"
     inkscape:cx="289.48397"
     inkscape:cy="97.89313"
     inkscape:window-width="3380"
     inkscape:window-height="1385"
     inkscape:window-x="60"
     inkscape:window-y="27"
     inkscape:window-maximized="1"
     inkscape:current-layer="svg6" />
  <g
     fill="#e60000"
     id="g4"
     transform="translate(-1.3241293,-115.31842)">
    <path
       d="M 1907.76,157.43 1920,94.49 h -99.13 l 18.35,-94.41 h -66.09 l -18.35,94.41 h -99.13 L 1674,0.08 h -66.1 l -18.34,94.41 h -99.14 l -12.23,62.94 h 99.13 L 1559,251.85 h -99.14 l -12.23,62.94 h 99.14 l -18.36,94.42 h 66.09 l 18.36,-94.42 H 1712 l -18.36,94.42 h 66.1 l 18.36,-94.42 h 99.13 l 12.24,-62.94 h -99.14 l 18.35,-94.42 z m -183.57,94.42 h -99.14 l 18.36,-94.42 h 99.12 z M 217.13,409 137.28,245.84 H 79.85 V 409 H 0 V 0 H 160.26 C 243.55,0 293,56.86 293,125.22 c 0,57.45 -35,93.05 -74.68,107.42 L 309.61,409 Z m -62,-337.76 H 79.85 v 108 h 75.25 c 35,0 58,-22.41 58,-54 0,-31.59 -22.97,-54.02 -58,-54.02 z M 535.46,409 v -27.59 c -19.53,20.68 -47.1,31 -74.68,31 -29.86,0 -54,-9.76 -70.65,-26.41 -24.12,-24.14 -30.44,-52.27 -30.44,-85 V 109.71 h 74.68 v 180.93 c 0,40.8 25.85,54.58 49.39,54.58 23.54,0 50,-13.78 50,-54.58 V 109.71 h 74.68 V 409 Z m 250.45,0 c -60.89,0 -86.73,-43.08 -86.73,-85.58 V 166.14 h -31.6 v -56.87 h 31.6 v -79.4 h 74.67 v 79.4 h 52.84 v 56.87 h -52.84 v 152.65 c 0,17.25 8,27 25.84,27 h 27 V 409 Z M 951.24,282.61 c 0,38.48 23.55,66.62 65.48,66.62 32.75,0 48.83,-9.19 67.79,-28.14 l 45.38,44.23 c -30.46,30.45 -59.75,47.1 -113.75,47.1 -70.64,0 -138.42,-32.16 -138.42,-153.36 0,-97.65 52.84,-152.79 130.39,-152.79 83.28,0 130.39,60.88 130.39,143 v 33.32 z m 106.84,-83.29 c -8,-17.81 -24.7,-31 -50,-31 -25.3,0 -41.94,13.21 -50,31 -4.6,10.91 -6.33,19 -6.9,32.16 H 1065 c -0.6,-13.21 -2.34,-21.25 -6.92,-32.16 z m 342.35,-82.83 c -13.71,-7.29 -28.69,-10.22 -47.06,-10.22 -32.17,0 -60.9,14.93 -75.25,32.16 v -28.72 h -72.95 V 409 h 74.67 V 228.61 c 0,-37.91 25.36,-52.94 48.26,-55.14 27.24,-2.62 42.12,11.23 42.12,11.23 z"
       id="path2" />
  </g>
</svg>
